# xmcd
#
# Track frame offsets:
#  150
#  11150
#  24012
#  36605
#  47505
#  60477
#  75147
#  86310
#  99750
#  111500
#  124620
#  137450
#  153592
#  166772
#  177387
#  189872
#  201450
#
# Disc length: 2861 seconds
#
# Revision: 0
# Processed by: cddbd v1.4PL0 Copyright (c) Steve Scherf et al.
# Submitted via: AltoMP3_Maker 3.0
#
DISCID=c80b2b11
DTITLE=Jimmy Reed - Lost In The Shuffle
DYEAR=1900
DGENRE=
TTITLE0=Baby What Do You Want Me To Do
TTITLE1=Big Boss Man
TTITLE2=Bright Lights Big City
TTITLE3=Ain't That Lovin' You Baby
TTITLE4=Honest I Do
TTITLE5=You Don't Have To Go
TTITLE6=Aw Shucks Hush Your Mouth
TTITLE7=You Got Me Dizzy
TTITLE8=Hush, Hush
TTITLE9=The Sun Is Shinning
TTITLE10=Shame Shame Shame
TTITLE11=Cold And Lonesome
TTITLE12=Upside The Wall
TTITLE13=I Ain't Got You
TTITLE14=Can't stand To See You Go
TTITLE15=i'm Gonna Get My Baby
TTITLE16=Mary, Mary
EXTD=
EXTT0=
EXTT1=
EXTT2=
EXTT3=
EXTT4=
EXTT5=
EXTT6=
EXTT7=
EXTT8=
EXTT9=
EXTT10=
EXTT11=
EXTT12=
EXTT13=
EXTT14=
EXTT15=
EXTT16=
PLAYORDER=
